<?xml version="1.0" encoding="UTF-8"?>
<svg width="200px" height="200px" viewBox="0 0 200 200" version="1.1" xmlns="http://www.w3.org/2000/svg" xmlns:xlink="http://www.w3.org/1999/xlink">
    <!-- Generator: Sketch 54.1 (76490) - https://sketchapp.com -->
    <title>Clipped</title>
    <desc>Created with Sketch.</desc>
    <defs>
        <circle id="path-1" cx="100" cy="100" r="100"></circle>
        <linearGradient x1="25.8860312%" y1="56.8712559%" x2="48.7337064%" y2="46.0199847%" id="linearGradient-3">
            <stop stop-color="#CCD3DC" offset="0%"></stop>
            <stop stop-color="#E8EDF4" offset="49.8548259%"></stop>
            <stop stop-color="#F5F9FF" offset="100%"></stop>
        </linearGradient>
        <linearGradient x1="128.417283%" y1="46.6753659%" x2="54.6673731%" y2="58.4773597%" id="linearGradient-4">
            <stop stop-color="#F2F6FC" offset="0%"></stop>
            <stop stop-color="#C6D2DD" offset="100%"></stop>
        </linearGradient>
        <linearGradient x1="50%" y1="62.177872%" x2="49.8418509%" y2="43.724166%" id="linearGradient-5">
            <stop stop-color="#FFFFFF" stop-opacity="0" offset="0%"></stop>
            <stop stop-color="#B9C3CB" offset="100%"></stop>
        </linearGradient>
        <linearGradient x1="50%" y1="83.6674459%" x2="49.8418509%" y2="32.6495711%" id="linearGradient-6">
            <stop stop-color="#FFFFFF" stop-opacity="0" offset="0%"></stop>
            <stop stop-color="#B9C3CB" offset="100%"></stop>
        </linearGradient>
        <linearGradient x1="50%" y1="31.8787622%" x2="14.1544782%" y2="45.5821777%" id="linearGradient-7">
            <stop stop-color="#CDD6DE" offset="0%"></stop>
            <stop stop-color="#9FACBA" offset="100%"></stop>
        </linearGradient>
        <linearGradient x1="50%" y1="16.7204676%" x2="44.5976541%" y2="35.6799323%" id="linearGradient-8">
            <stop stop-color="#D8E2EA" offset="0%"></stop>
            <stop stop-color="#B0C1D0" offset="100%"></stop>
        </linearGradient>
        <linearGradient x1="160.386506%" y1="14.874971%" x2="50%" y2="85.125029%" id="linearGradient-9">
            <stop stop-color="#FFE7C2" offset="0%"></stop>
            <stop stop-color="#FFCB8F" offset="100%"></stop>
        </linearGradient>
        <linearGradient x1="50%" y1="-38.1749626%" x2="44.6444582%" y2="40.2083956%" id="linearGradient-10">
            <stop stop-color="#FFE2B9" offset="0%"></stop>
            <stop stop-color="#FFC083" offset="100%"></stop>
        </linearGradient>
        <linearGradient x1="34.955021%" y1="90.2769246%" x2="45.431743%" y2="15.0518201%" id="linearGradient-11">
            <stop stop-color="#FFFFFF" stop-opacity="0" offset="0%"></stop>
            <stop stop-color="#132E3C" offset="100%"></stop>
        </linearGradient>
        <linearGradient x1="25.8611671%" y1="63.2919321%" x2="42.6704855%" y2="38.466626%" id="linearGradient-12">
            <stop stop-color="#FFFFFF" stop-opacity="0" offset="0%"></stop>
            <stop stop-color="#132E3C" offset="100%"></stop>
        </linearGradient>
        <linearGradient x1="41.6646755%" y1="72.4644973%" x2="47.4690623%" y2="30.5076155%" id="linearGradient-13">
            <stop stop-color="#FFFFFF" stop-opacity="0" offset="0%"></stop>
            <stop stop-color="#132E3C" offset="100%"></stop>
        </linearGradient>
        <linearGradient x1="25.8611671%" y1="57.4135892%" x2="42.6704855%" y2="43.5672484%" id="linearGradient-14">
            <stop stop-color="#FFFFFF" stop-opacity="0" offset="0%"></stop>
            <stop stop-color="#132E3C" offset="100%"></stop>
        </linearGradient>
        <linearGradient x1="61.3286465%" y1="31.7901991%" x2="50%" y2="83.1450895%" id="linearGradient-15">
            <stop stop-color="#F1F6FA" offset="0%"></stop>
            <stop stop-color="#DEEAF4" offset="100%"></stop>
        </linearGradient>
        <linearGradient x1="51.9037627%" y1="15.9876342%" x2="50%" y2="80.2038176%" id="linearGradient-16">
            <stop stop-color="#F1F6FA" offset="0%"></stop>
            <stop stop-color="#DEEAF4" offset="100%"></stop>
        </linearGradient>
        <linearGradient x1="51.9037627%" y1="12.6754828%" x2="50%" y2="83.1450895%" id="linearGradient-17">
            <stop stop-color="#F1F6FA" offset="0%"></stop>
            <stop stop-color="#DEEAF4" offset="100%"></stop>
        </linearGradient>
        <polygon id="path-18" points="18.628986 0 0 30.115273 72.0028139 50.3128936 92.8976483 17.9453239"></polygon>
        <linearGradient x1="50%" y1="-44.430765%" x2="56.0165384%" y2="92.4499974%" id="linearGradient-20">
            <stop stop-color="#FFF1BC" offset="0%"></stop>
            <stop stop-color="#FFDF87" offset="100%"></stop>
        </linearGradient>
        <linearGradient x1="50%" y1="-1.11022302e-14%" x2="56.0165384%" y2="72.4767836%" id="linearGradient-21">
            <stop stop-color="#FFF1BC" offset="0%"></stop>
            <stop stop-color="#FFDF87" offset="100%"></stop>
        </linearGradient>
    </defs>
    <g id="一、首页" stroke="none" stroke-width="1" fill="none" fill-rule="evenodd">
        <g id="空页面提示1" transform="translate(-832.000000, -284.000000)">
            <g id="异常/空内容提示" transform="translate(610.000000, 134.000000)">
                <g id="empty-content">
                    <g id="Artwork" transform="translate(222.000000, 150.000000)">
                        <g id="Mask" fill="#FFFFFF" fill-rule="nonzero">
                            <circle id="path-1" cx="100" cy="100" r="100"></circle>
                        </g>
                        <g id="Clipped">
                            <g id="Group-Clipped">
                                <mask id="mask-2" fill="white">
                                    <use xlink:href="#path-1"></use>
                                </mask>
                                <g id="path-1"></g>
                                <g id="Group" mask="url(#mask-2)">
                                    <g transform="translate(-40.000000, -91.000000)" id="编组">
                                        <g transform="translate(0.000000, 0.285714)">
                                            <g id="Wall" opacity="0.300000012" fill-rule="nonzero">
                                                <polygon id="wall" fill="url(#linearGradient-3)" points="122.145483 0.141582438 499.78498 0.141582438 499.78498 347.506726 123.550069 234.442728"></polygon>
                                                <polygon id="wall" fill="url(#linearGradient-4)" points="0.301245319 0.621440495 123.441397 0.621440495 123.441397 231.685538 127.493766 238.154613 0.301245319 290.06482"></polygon>
                                            </g>
                                            <g id="Artwork" transform="translate(49.251870, 72.319202)">
                                                <g id="Shadow" transform="translate(18.000000, 126.000000)" fill-rule="nonzero">
                                                    <g id="path-6-link" fill="url(#linearGradient-6)">
                                                        <path d="M4.8032355,2.59712 L130.468168,0.485297 L130.191859,54.169459 C130.18219,56.047964 131.406927,57.709984 133.204021,58.257092 L219.328082,84.476747 C219.356045,84.48526 219.384096,84.493485 219.412229,84.501419 L410.304239,138.339152 L150.630203,141.144638 L2.9535216,66.308301 C1.5249524,65.584362 0.6246474,64.118818 0.6246474,62.517288 L0.6246474,6.84652 C0.6246474,4.527151 2.4841939,2.636092 4.8032355,2.59712 Z" id="path-6"></path>
                                                    </g>
                                                    <g id="path-6-link" style="mix-blend-mode: overlay;" fill="#000000">
                                                        <path d="M4.8032355,2.59712 L130.468168,0.485297 L130.191859,54.169459 C130.18219,56.047964 131.406927,57.709984 133.204021,58.257092 L219.328082,84.476747 C219.356045,84.48526 219.384096,84.493485 219.412229,84.501419 L410.304239,138.339152 L150.630203,141.144638 L2.9535216,66.308301 C1.5249524,65.584362 0.6246474,64.118818 0.6246474,62.517288 L0.6246474,6.84652 C0.6246474,4.527151 2.4841939,2.636092 4.8032355,2.59712 Z" id="path-6"></path>
                                                    </g>
                                                </g>
                                                <g id="Box" transform="translate(0.000000, 96.493571)">
                                                    <polygon id="side" fill="url(#linearGradient-7)" fill-rule="nonzero" transform="translate(46.245940, 47.435288) scale(-1, 1) translate(-46.245940, -47.435288) " points="18.326747 1.05921881 74.1651337 20.9900646 74.1651337 93.8113579 18.9587037 73.8805122"></polygon>
                                                    <polygon id="side" fill="url(#linearGradient-8)" fill-rule="nonzero" points="73.9389446 1.05921881 147.989326 19.0040293 147.989326 91.8253227 73.9389446 73.8805122"></polygon>
                                                    <g id="cat" transform="translate(56.884627, 0.000000)">
                                                        <path d="M19.6509694,3.33224833 C27.2721577,12.7401116 30.2870304,19.1307329 28.6955875,22.5041121 C26.5604428,27.0299752 12.741496,27.0299752 10.6063513,22.5041121 C9.01490833,19.1307329 12.0297811,12.7401116 19.6509694,3.33224833 Z" id="Triangle" fill="url(#linearGradient-9)" fill-rule="nonzero" transform="translate(19.650969, 14.615379) rotate(-27.000000) translate(-19.650969, -14.615379) "></path>
                                                        <path d="M19.6509694,8.79038613 C23.5854596,13.6472594 25.1419081,16.946461 24.3203149,18.687991 C23.2180319,21.0244985 16.0839068,21.0244985 14.9816239,18.687991 C14.1600307,16.946461 15.7164792,13.6472594 19.6509694,8.79038613 Z" id="Triangle-Copy-2" fill="#FBA581" fill-rule="nonzero" transform="translate(19.650969, 14.615379) rotate(-27.000000) translate(-19.650969, -14.615379) "></path>
                                                        <path d="M50.3259886,3.33224868 C57.9471769,12.7401121 60.9620496,19.1307334 59.3706067,22.5041126 C57.235462,27.0299757 43.4165152,27.0299757 41.2813705,22.5041126 C39.6899276,19.1307334 42.7048003,12.7401121 50.3259886,3.33224868 Z" id="Triangle-Copy" fill="url(#linearGradient-9)" fill-rule="nonzero" transform="translate(50.325989, 14.615379) scale(-1, 1) rotate(-27.000000) translate(-50.325989, -14.615379) "></path>
                                                        <path d="M50.4771109,8.79038647 C54.4116011,13.6472598 55.9680496,16.9464614 55.1464564,18.6879914 C54.0441735,21.0244989 46.9100483,21.0244989 45.8077654,18.6879914 C44.9861722,16.9464614 46.5426207,13.6472598 50.4771109,8.79038647 Z" id="Triangle-Copy-2" fill="#FBA581" fill-rule="nonzero" transform="translate(50.477111, 14.615379) scale(-1, 1) rotate(-27.000000) translate(-50.477111, -14.615379) "></path>
                                                        <path d="M35.2363433,54.0003909 C43.438818,54.0003909 43.4233826,50.7017743 48.0660913,48.1769377 C55.3590421,44.2108245 62.1997749,52.3031683 62.1997749,42.8524405 C62.1997749,33.1313394 57.4311718,23.8753308 50.1910395,18.3397766 C47.787372,16.5020158 45.1112956,15.0743191 42.2468641,14.175806 C40.0114234,13.4745943 37.2806953,13.8866543 34.8557727,13.8866543 C31.9876536,13.8866543 29.604697,13.625758 27.0118662,14.5922338 C24.1986154,15.640871 21.5863168,17.2032564 19.2594075,19.1597276 C12.5960143,24.7623256 8.27291175,33.5965621 8.27291175,42.8524405 C8.27291175,51.5592145 14.0790405,43.103221 20.6958325,47.185318 C25.8333902,50.3548312 27.0338686,54.0003909 35.2363433,54.0003909 Z" id="Oval" fill="url(#linearGradient-10)" fill-rule="nonzero"></path>
                                                        <path d="M34.7132283,10.2749359 C32.5674223,11.6070904 30.5408277,13.5363874 28.6334446,16.0628268 C30.1330992,15.2698568 31.1977589,14.3541763 33.5103341,15.0893968 C35.0520509,15.5795438 35.4530157,13.9747235 34.7132283,10.2749359 Z" id="Path-3" fill="#FFD29F" fill-rule="nonzero" transform="translate(31.853246, 13.168881) scale(-1, 1) rotate(71.000000) translate(-31.853246, -13.168881) "></path>
                                                        <path d="M38.8995056,10.274936 C36.7536996,11.6070905 34.7271051,13.5363875 32.8197219,16.0628269 C34.3193765,15.2698569 35.3840362,14.3541764 37.6966114,15.0893969 C39.2383282,15.5795439 39.639293,13.9747236 38.8995056,10.274936 Z" id="Path-3-Copy-6" fill="#FFD29F" fill-rule="nonzero" transform="translate(36.039523, 13.168881) scale(-1, 1) rotate(52.000000) translate(-36.039523, -13.168881) "></path>
                                                        <g id="Group-9" transform="translate(0.000000, 24.255423)" fill="#FFC083" fill-rule="nonzero">
                                                            <g id="Group-8" transform="translate(4.878569, 0.000000)">
                                                                <path d="M9.66507851,0.257434707 C7.5192725,1.58958922 5.49267793,3.51888618 3.58529481,6.04532556 C5.08494942,5.25235554 6.14960909,4.33667504 8.4621843,5.07189558 C10.0039011,5.56204261 10.4048658,3.95722232 9.66507851,0.257434707 Z" id="Path-3"></path>
                                                                <path d="M8.18085292,3.85448808 C6.03504691,5.1866426 4.00845234,7.11593955 2.10106922,9.64237894 C3.60072383,8.84940891 4.66538349,7.93372841 6.97795871,8.66894895 C8.51967552,9.15909598 8.92064025,7.55427569 8.18085292,3.85448808 Z" id="Path-3-Copy"></path>
                                                                <path d="M9.75557476,7.14888903 C5.40386361,7.7034807 2.47061894,9.9150219 0.955840749,13.7835127 C3.11682875,11.8847785 4.46796222,11.2748268 7.95279927,12.3827362 C10.276024,13.1213425 10.8769491,11.3767268 9.75557476,7.14888903 Z" id="Path-3-Copy-2" transform="translate(5.629502, 10.466201) rotate(-14.000000) translate(-5.629502, -10.466201) "></path>
                                                            </g>
                                                            <g id="Group-7" transform="translate(8.483602, 20.211411) rotate(-26.000000) translate(-8.483602, -20.211411) translate(2.983602, 12.711411)">
                                                                <path d="M9.66507851,0.257434707 C7.5192725,1.58958922 5.49267793,3.51888618 3.58529481,6.04532556 C5.08494942,5.25235554 6.14960909,4.33667504 8.4621843,5.07189558 C10.0039011,5.56204261 10.4048658,3.95722232 9.66507851,0.257434707 Z" id="Path-3-Copy-5"></path>
                                                                <path d="M8.18085292,3.85448808 C6.03504691,5.1866426 4.00845234,7.11593955 2.10106922,9.64237894 C3.60072383,8.84940891 4.66538349,7.93372841 6.97795871,8.66894895 C8.51967552,9.15909598 8.92064025,7.55427569 8.18085292,3.85448808 Z" id="Path-3-Copy-4"></path>
                                                                <path d="M9.75557476,7.14888903 C5.40386361,7.7034807 2.47061894,9.9150219 0.955840749,13.7835127 C3.11682875,11.8847785 4.46796222,11.2748268 7.95279927,12.3827362 C10.276024,13.1213425 10.8769491,11.3767268 9.75557476,7.14888903 Z" id="Path-3-Copy-3" transform="translate(5.629502, 10.466201) rotate(-14.000000) translate(-5.629502, -10.466201) "></path>
                                                            </g>
                                                            <g id="Group-7-Copy" transform="translate(20.431573, 21.562596) rotate(-53.000000) translate(-20.431573, -21.562596) translate(14.931573, 14.062596)">
                                                                <path d="M9.65645327,0.0744529555 C7.51064726,1.40660747 5.48405269,3.33590442 3.57666957,5.86234381 C5.07632418,5.06937378 6.14098384,4.15369329 8.45355906,4.88891383 C9.99527587,5.37906086 10.3962406,3.77424056 9.65645327,0.0744529555 Z" id="Path-3-Copy-5"></path>
                                                                <path d="M8.17222768,3.67150633 C6.02642166,5.00366085 3.9998271,6.9329578 2.09244397,9.45939718 C3.59209859,8.66642716 4.65675825,7.75074666 6.96933347,8.4859672 C8.51105028,8.97611423 8.91201501,7.37129394 8.17222768,3.67150633 Z" id="Path-3-Copy-4"></path>
                                                                <path d="M9.74694964,6.96590737 C5.39523849,7.52049904 2.46199382,9.73204024 0.947215635,13.6005309 C3.10820363,11.7017968 4.4593371,11.0918451 7.94417415,12.1997544 C10.2673988,12.9383607 10.868324,11.193745 9.74694964,6.96590737 Z" id="Path-3-Copy-3" transform="translate(5.620877, 10.283219) rotate(-14.000000) translate(-5.620877, -10.283219) "></path>
                                                            </g>
                                                            <g id="Group-7-Copy-2" transform="translate(28.964177, 28.925699) rotate(-82.000000) translate(-28.964177, -28.925699) translate(23.464177, 21.425699)">
                                                                <path d="M9.55411544,0.0196151078 C7.40830943,1.35176963 5.38171486,3.28106658 3.47433174,5.80750596 C4.97398635,5.01453594 6.03864601,4.09885544 8.35122123,4.83407598 C9.89293804,5.32422301 10.2939028,3.71940272 9.55411544,0.0196151078 Z" id="Path-3-Copy-5"></path>
                                                                <path d="M8.06988985,3.61666848 C5.92408383,4.948823 3.89748927,6.87811995 1.99010615,9.40455934 C3.48976076,8.61158931 4.55442042,7.69590881 6.86699564,8.43112935 C8.40871245,8.92127638 8.80967718,7.31645609 8.06988985,3.61666848 Z" id="Path-3-Copy-4"></path>
                                                                <path d="M9.64461188,6.91106941 C5.29290073,7.46566108 2.35965606,9.67720228 0.844877873,13.5456931 C3.00586587,11.6469589 4.35699934,11.0370072 7.84183639,12.1449166 C10.1650611,12.8835229 10.7659863,11.1389072 9.64461188,6.91106941 Z" id="Path-3-Copy-3" transform="translate(5.518539, 10.228381) rotate(-14.000000) translate(-5.518539, -10.228381) "></path>
                                                            </g>
                                                        </g>
                                                        <g id="Group-9-Copy" transform="translate(52.630172, 42.255423) scale(-1, 1) translate(-52.630172, -42.255423) translate(35.130172, 24.255423)" fill="#FFC083" fill-rule="nonzero">
                                                            <g id="Group-8" transform="translate(4.878569, 0.000000)">
                                                                <path d="M9.66507851,0.257434707 C7.5192725,1.58958922 5.49267793,3.51888618 3.58529481,6.04532556 C5.08494942,5.25235554 6.14960909,4.33667504 8.4621843,5.07189558 C10.0039011,5.56204261 10.4048658,3.95722232 9.66507851,0.257434707 Z" id="Path-3"></path>
                                                                <path d="M8.18085292,3.85448808 C6.03504691,5.1866426 4.00845234,7.11593955 2.10106922,9.64237894 C3.60072383,8.84940891 4.66538349,7.93372841 6.97795871,8.66894895 C8.51967552,9.15909598 8.92064025,7.55427569 8.18085292,3.85448808 Z" id="Path-3-Copy"></path>
                                                                <path d="M9.75557476,7.14888903 C5.40386361,7.7034807 2.47061894,9.9150219 0.955840749,13.7835127 C3.11682875,11.8847785 4.46796222,11.2748268 7.95279927,12.3827362 C10.276024,13.1213425 10.8769491,11.3767268 9.75557476,7.14888903 Z" id="Path-3-Copy-2" transform="translate(5.629502, 10.466201) rotate(-14.000000) translate(-5.629502, -10.466201) "></path>
                                                            </g>
                                                            <g id="Group-7" transform="translate(8.483602, 20.211411) rotate(-26.000000) translate(-8.483602, -20.211411) translate(2.983602, 12.711411)">
                                                                <path d="M9.66507851,0.257434707 C7.5192725,1.58958922 5.49267793,3.51888618 3.58529481,6.04532556 C5.08494942,5.25235554 6.14960909,4.33667504 8.4621843,5.07189558 C10.0039011,5.56204261 10.4048658,3.95722232 9.66507851,0.257434707 Z" id="Path-3-Copy-5"></path>
                                                                <path d="M8.18085292,3.85448808 C6.03504691,5.1866426 4.00845234,7.11593955 2.10106922,9.64237894 C3.60072383,8.84940891 4.66538349,7.93372841 6.97795871,8.66894895 C8.51967552,9.15909598 8.92064025,7.55427569 8.18085292,3.85448808 Z" id="Path-3-Copy-4"></path>
                                                                <path d="M9.75557476,7.14888903 C5.40386361,7.7034807 2.47061894,9.9150219 0.955840749,13.7835127 C3.11682875,11.8847785 4.46796222,11.2748268 7.95279927,12.3827362 C10.276024,13.1213425 10.8769491,11.3767268 9.75557476,7.14888903 Z" id="Path-3-Copy-3" transform="translate(5.629502, 10.466201) rotate(-14.000000) translate(-5.629502, -10.466201) "></path>
                                                            </g>
                                                            <g id="Group-7-Copy" transform="translate(18.250051, 21.437407) rotate(-53.000000) translate(-18.250051, -21.437407) translate(12.750051, 13.937407)">
                                                                <path d="M9.49200272,0.0730214515 C7.34619671,1.40517597 5.31960214,3.33447292 3.41221902,5.86091231 C4.91187363,5.06794228 5.9765333,4.15226178 8.28910851,4.88748232 C9.83082532,5.37762935 10.2317901,3.77280906 9.49200272,0.0730214515 Z" id="Path-3-Copy-5"></path>
                                                                <path d="M8.00777713,3.67007482 C5.86197112,5.00222934 3.83537655,6.93152629 1.92799343,9.45796568 C3.42764804,8.66499565 4.4923077,7.74931516 6.80488292,8.4845357 C8.34659973,8.97468272 8.74756447,7.36986243 8.00777713,3.67007482 Z" id="Path-3-Copy-4"></path>
                                                                <path d="M9.58249928,6.96447558 C5.23078813,7.51906726 2.29754346,9.73060845 0.782765268,13.5990992 C2.94375327,11.7003651 4.29488674,11.0904134 7.77972379,12.1983227 C10.1029485,12.936929 10.7038737,11.1923133 9.58249928,6.96447558 Z" id="Path-3-Copy-3" transform="translate(5.456426, 10.281787) rotate(-14.000000) translate(-5.456426, -10.281787) "></path>
                                                            </g>
                                                            <g id="Group-7-Copy-2" transform="translate(26.653436, 29.070043) rotate(-82.000000) translate(-26.653436, -29.070043) translate(21.153436, 21.570043)">
                                                                <path d="M9.68330888,0.0427082534 C7.53750287,1.37486277 5.5109083,3.30415972 3.60352518,5.83059911 C5.1031798,5.03762908 6.16783946,4.12194859 8.48041467,4.85716913 C10.0221315,5.34731615 10.4230962,3.74249586 9.68330888,0.0427082534 Z" id="Path-3-Copy-5"></path>
                                                                <path d="M8.19908329,3.63976163 C6.05327728,4.97191614 4.02668271,6.9012131 2.11929959,9.42765248 C3.6189542,8.63468246 4.68361387,7.71900196 6.99618908,8.4542225 C8.53790589,8.94436953 8.93887063,7.33954924 8.19908329,3.63976163 Z" id="Path-3-Copy-4"></path>
                                                                <path d="M9.77380532,6.93416233 C5.42209417,7.48875401 2.4888495,9.7002952 0.974071311,13.5687858 C3.13505931,11.6700517 4.48619278,11.0601 7.97102983,12.1680093 C10.2942545,12.9066156 10.8951796,11.1619999 9.77380532,6.93416233 Z" id="Path-3-Copy-3" transform="translate(5.647732, 10.251474) rotate(-14.000000) translate(-5.647732, -10.251474) "></path>
                                                            </g>
                                                        </g>
                                                        <g id="Group-12" transform="translate(18.441413, 17.380818)">
                                                            <g id="Group-10" transform="translate(2.604916, 4.897167)">
                                                                <ellipse id="Oval-30" stroke="#E5AB74" fill="#FFFFFF" fill-rule="nonzero" cx="5.77940306" cy="6.05203557" rx="4.93953143" ry="5.15944483"></ellipse>
                                                                <path d="M4.04780654,6.59176343 C4.45950681,4.59377971 7.39757955,4.56062614 7.93153012,6.59176343" id="Path-18" stroke="#767676" stroke-linecap="round"></path>
                                                            </g>
                                                            <g id="Group-11" transform="translate(19.477954, 4.897167)">
                                                                <ellipse id="Oval-30-Copy" stroke="#E5AB74" stroke-width="1.4" fill="#FFFFFF" fill-rule="nonzero" cx="5.7275885" cy="6.05203557" rx="4.98953143" ry="5.20944483"></ellipse>
                                                                <path d="M3.99599198,6.59176343 C4.40769225,4.59377971 7.34576499,4.56062614 7.87971556,6.59176343" id="Path-18-Copy" stroke="#767676" stroke-width="1.5" stroke-linecap="round"></path>
                                                            </g>
                                                            <g id="Group-5" transform="translate(13.084367, 15.858648)">
                                                                <path d="M1.71256799,4.16390035 C2.65839317,4.16390035 3.42513598,3.19003842 3.42513598,1.98871886 C3.42513598,0.787399294 2.65839317,1.51815939 1.71256799,1.51815939 C0.766742806,1.51815939 0.273667388,1.90696482 0.273667388,3.10828439 C0.273667388,4.30960395 0.766742806,4.16390035 1.71256799,4.16390035 Z" id="Oval-2" fill="#FFFFFF" fill-rule="nonzero"></path>
                                                                <path d="M5.54906378,4.16390035 C6.49488896,4.16390035 7.26163177,3.19003842 7.26163177,1.98871886 C7.26163177,0.787399294 6.49488896,1.51815939 5.54906378,1.51815939 C4.60323859,1.51815939 4.11016318,1.90696482 4.11016318,3.10828439 C4.11016318,4.30960395 4.60323859,4.16390035 5.54906378,4.16390035 Z" id="Oval-2-Copy" fill="#FFFFFF" fill-rule="nonzero" transform="translate(5.685897, 2.733737) scale(-1, 1) translate(-5.685897, -2.733737) "></path>
                                                                <path d="M3.8472924,3.23893258 C4.72390699,4.53743417 7.39648087,4.13497265 7.27832565,1.47173311" id="Path-19-Copy" stroke="#E08063" stroke-width="2.9835" stroke-linecap="round" transform="translate(5.564707, 2.712797) scale(-1, 1) translate(-5.564707, -2.712797) "></path>
                                                                <path d="M0.285150984,3.23893258 C1.16176557,4.53743417 3.83433945,4.13497265 3.71618423,1.47173311" id="Path-19" stroke="#E08063" stroke-width="2.9835" stroke-linecap="round"></path>
                                                                <path d="M2.37476095,1.30831886 L5.0582408,1.30831886" id="Line-2" stroke="#78625B" stroke-width="2" stroke-linecap="round"></path>
                                                            </g>
                                                            <g id="Group-6" stroke-linecap="round" transform="translate(0.038057, 18.427972)" stroke="#FFFFFF" stroke-width="2.93249994">
                                                                <path d="M8.80942311,1.11049583 C7.74982235,1.11049583 4.82919262,1.11049583 0.0475339338,1.11049583" id="Path-2"></path>
                                                                <path d="M8.75599308,3.6854343 C8.11520763,3.6854343 6.34897917,3.6854343 3.4573077,3.6854343" id="Path-2-Copy" transform="translate(6.106650, 3.685434) rotate(-12.000000) translate(-6.106650, -3.685434) "></path>
                                                            </g>
                                                            <g id="Group-6-Copy-2" stroke-linecap="round" transform="translate(7.756576, 2.386012) rotate(96.000000) translate(-7.756576, -2.386012) translate(5.756576, -0.113988)" stroke="#FFFFFF" stroke-width="2.93249994">
                                                                <path d="M2.4798309,1.08977786 C2.04857174,1.08977786 1.23930936,1.08977786 0.0520437584,1.08977786" id="Path-2"></path>
                                                                <path d="M3.01653151,4.19333148 C2.7174983,4.19333148 1.89325835,4.19333148 0.543811663,4.19333148" id="Path-2-Copy" transform="translate(1.780172, 4.193331) rotate(-15.000000) translate(-1.780172, -4.193331) "></path>
                                                            </g>
                                                            <g id="Group-6-Copy-3" stroke-linecap="round" transform="translate(25.082595, 1.900731) scale(-1, 1) rotate(96.000000) translate(-25.082595, -1.900731) translate(23.582595, -0.599269)" stroke="#FFFFFF" stroke-width="2.93249994">
                                                                <path d="M2.4798309,1.08977786 C2.04857174,1.08977786 1.23930936,1.08977786 0.0520437584,1.08977786" id="Path-2"></path>
                                                                <path d="M1.98941713,4.19108897 C1.81665583,4.19108897 1.34046535,4.19108897 0.560845707,4.19108897" id="Path-2-Copy" transform="translate(1.275131, 4.191089) rotate(-15.000000) translate(-1.275131, -4.191089) "></path>
                                                            </g>
                                                            <g id="Group-6-Copy" stroke-linecap="round" transform="translate(29.546546, 20.927972) scale(-1, 1) translate(-29.546546, -20.927972) translate(25.046546, 18.427972)" stroke="#FFFFFF" stroke-width="2.93249994">
                                                                <path d="M8.80942311,1.11049583 C7.74982235,1.11049583 4.82919262,1.11049583 0.0475339338,1.11049583" id="Path-2"></path>
                                                                <path d="M8.75599308,3.6854343 C8.11520763,3.6854343 6.34897917,3.6854343 3.4573077,3.6854343" id="Path-2-Copy" transform="translate(6.106650, 3.685434) rotate(-12.000000) translate(-6.106650, -3.685434) "></path>
                                                            </g>
                                                        </g>
                                                    </g>
                                                    <polygon id="side" fill="#DEEAF4" fill-rule="nonzero" points="18.326747 20.9195715 92.3771287 38.864382 92.3771287 114.995734 18.326747 93.7408649"></polygon>
                                                    <g id="side" opacity="0.133718297" style="mix-blend-mode: multiply;" transform="translate(18.000000, 20.000000)" fill-rule="nonzero">
                                                        <g id="path-15-link" fill="#000000">
                                                            <polygon id="path-15" points="0.326747 0.9195715 74.3771287 18.864382 74.3771287 94.995734 0.326747 73.7408649"></polygon>
                                                        </g>
                                                        <g id="path-15-link" fill="url(#linearGradient-12)">
                                                            <polygon id="path-15" points="0.326747 0.9195715 74.3771287 18.864382 74.3771287 94.995734 0.326747 73.7408649"></polygon>
                                                        </g>
                                                    </g>
                                                    <polygon id="side" fill="#D2DEE9" fill-rule="nonzero" transform="translate(120.500863, 66.964635) scale(-1, 1) translate(-120.500863, -66.964635) " points="92.265692 18.9335363 148.736035 38.864382 148.736035 114.995734 92.8976488 91.7548296"></polygon>
                                                    <g id="side" opacity="0.133718297" style="mix-blend-mode: multiply;" transform="translate(120.501726, 66.500000) scale(-1, 1) translate(-120.501726, -66.500000) translate(92.001726, 18.000000)" fill-rule="nonzero">
                                                        <g id="path-17-link" fill="#000000">
                                                            <polygon id="path-17" points="0.2656915 0.9335363 56.736035 20.864382 56.736035 96.995734 0.8976483 73.7548296"></polygon>
                                                        </g>
                                                        <g id="path-17-link" fill="url(#linearGradient-14)">
                                                            <polygon id="path-17" points="0.2656915 0.9335363 56.736035 20.864382 56.736035 96.995734 0.8976483 73.7548296"></polygon>
                                                        </g>
                                                    </g>
                                                    <polygon id="lid" fill="url(#linearGradient-15)" fill-rule="nonzero" transform="translate(130.178881, 45.111058) scale(-1, 1) translate(-130.178881, -45.111058) " points="111.85631 18.879933 92.114018 47.7110659 149.261751 71.3421839 168.243744 38.3564678"></polygon>
                                                    <g id="scratches" opacity="0.600000024" transform="translate(101.113901, 83.140290) rotate(1.000000) translate(-101.113901, -83.140290) translate(95.113901, 60.640290)" fill="#ACBBCB" fill-rule="nonzero">
                                                        <polygon id="Path-4" transform="translate(3.101715, 22.570782) rotate(3.000000) translate(-3.101715, -22.570782) " points="1.80249818 6.83139728 1.76794546 10.1475122 1.46967646 12.5209693 1.76794546 14.5206251 2.38089825 17.5161167 3.72330891 44.9161189 3.72330891 36.3629633 4.73375288 35.5503878 3.72330891 31.8809762 2.90296908 17.5161167 2.5272756 13.9124723 2.90296908 12.5209693 2.38089825 10.1475122 1.76794546 0.225445098"></polygon>
                                                        <polygon id="Path-4-Copy" transform="translate(6.579482, 24.534074) rotate(-174.000000) translate(-6.579482, -24.534074) " points="5.32832185 18.3672841 5.94127465 22.0249872 7.2836853 35.6260801 7.2836853 31.3803773 7.83064212 32.6952652 7.2836853 29.1555628 6.46334548 22.0249872 6.46334548 19.545445 5.94127465 18.3672841 5.32832185 13.4420672"></polygon>
                                                        <polygon id="Path-4-Copy-2" transform="translate(9.565833, 24.562653) scale(-1, 1) rotate(-177.000000) translate(-9.565833, -24.562653) " points="8.75555785 10.2531285 9.13438125 13.2430698 8.94496955 15.4056684 9.13438125 17.2276742 9.52362864 19.9570455 10.3761084 44.9228241 10.3761084 37.1295331 10.3236768 34.6166787 10.3761084 33.0457269 9.85516268 19.9570455 9.81116581 16.7625244 9.85516268 15.4056684 9.52362864 13.2430698 9.13438125 4.20248189"></polygon>
                                                    </g>
                                                    <g id="lid" transform="translate(0.000000, 20.257560)">
                                                        <g id="Mask" fill="url(#linearGradient-17)" fill-rule="nonzero">
                                                            <polygon id="path-21" points="18.628986 0 0 30.115273 72.0028139 50.3128936 92.8976483 17.9453239"></polygon>
                                                        </g>
                                                        <g id="Group-3-Copy-Clipped">
                                                            <g>
                                                                <mask id="mask-19" fill="white">
                                                                    <use xlink:href="#path-18"></use>
                                                                </mask>
                                                                <g id="path-17"></g>
                                                                <g id="Group-3-Copy" opacity="0.400000006" mask="url(#mask-19)">
                                                                    <g transform="translate(25.000000, -15.000000)" id="Group">
                                                                        <g>
                                                                            <g id="编组" transform="translate(17.335969, 22.950822) rotate(-147.000000) translate(-17.335969, -22.950822) translate(11.335969, 0.450822)" fill="#ACBBCB" fill-rule="nonzero">
                                                                                <polygon id="Path-4" transform="translate(3.101715, 22.570782) rotate(3.000000) translate(-3.101715, -22.570782) " points="1.80249818 6.83139728 1.76794546 10.1475122 1.46967646 12.5209693 1.76794546 14.5206251 2.38089825 17.5161167 3.72330891 44.9161189 3.72330891 36.3629633 4.73375288 35.5503878 3.72330891 31.8809762 2.90296908 17.5161167 2.5272756 13.9124723 2.90296908 12.5209693 2.38089825 10.1475122 1.76794546 0.225445098"></polygon>
                                                                                <polygon id="Path-4-Copy" transform="translate(6.579482, 24.534074) rotate(-174.000000) translate(-6.579482, -24.534074) " points="5.32832185 18.3672841 5.94127465 22.0249872 7.2836853 35.6260801 7.2836853 31.3803773 7.83064212 32.6952652 7.2836853 29.1555628 6.46334548 22.0249872 6.46334548 19.545445 5.94127465 18.3672841 5.32832185 13.4420672"></polygon>
                                                                                <polygon id="Path-4-Copy-2" transform="translate(9.565833, 24.562653) scale(-1, 1) rotate(-177.000000) translate(-9.565833, -24.562653) " points="8.75555785 10.2531285 9.13438125 13.2430698 8.94496955 15.4056684 9.13438125 17.2276742 9.52362864 19.9570455 10.3761084 44.9228241 10.3761084 37.1295331 10.3236768 34.6166787 10.3761084 33.0457269 9.85516268 19.9570455 9.81116581 16.7625244 9.85516268 15.4056684 9.52362864 13.2430698 9.13438125 4.20248189"></polygon>
                                                                            </g>
                                                                        </g>
                                                                    </g>
                                                                </g>
                                                            </g>
                                                        </g>
                                                    </g>
                                                </g>
                                                <g id="yellow" transform="translate(5.299252, 45.199501)" fill-rule="nonzero">
                                                    <path d="M32.2485004,2.46169097 C33.4576932,3.651016 34.48846,4.80428393 35.3408009,5.92149476 C37.1151484,8.24723123 37.6449165,11.4619021 37.5215439,11.5430913 C36.848477,11.9860234 33.0002413,9.43090025 32.2485004,7.35563327 C31.7978314,6.11150994 31.7978314,4.48019584 32.2485004,2.46169097 Z" id="Path-12" fill="#FFB883"></path>
                                                    <g id="Path-9">
                                                        <g id="path-24-link" fill="#000000">
                                                            <path d="M0,22.8661902 C8.84529638,16.8271485 13.4823386,9.30315612 13.9111268,0.294212926 C16.2337312,-0.0522449141 20.7202046,0.380043414 31.9768311,2.33737927 C33.0251176,2.51965847 33.1178087,4.18264538 32.2549042,7.32634002 C36.0500925,8.71811573 37.7890549,10.043861 37.4717912,11.3035759 C34.7211203,22.225284 31.0820851,27.2047873 25.5899459,29.5447439 C19.289985,30.3445743 10.760003,28.1183898 0,22.8661902 Z" id="path-24"></path>
                                                        </g>
                                                        <g id="path-24-link" fill="url(#linearGradient-21)">
                                                            <path d="M0,22.8661902 C8.84529638,16.8271485 13.4823386,9.30315612 13.9111268,0.294212926 C16.2337312,-0.0522449141 20.7202046,0.380043414 31.9768311,2.33737927 C33.0251176,2.51965847 33.1178087,4.18264538 32.2549042,7.32634002 C36.0500925,8.71811573 37.7890549,10.043861 37.4717912,11.3035759 C34.7211203,22.225284 31.0820851,27.2047873 25.5899459,29.5447439 C19.289985,30.3445743 10.760003,28.1183898 0,22.8661902 Z" id="path-24"></path>
                                                        </g>
                                                    </g>
                                                </g>
                                            </g>
                                        </g>
                                    </g>
                                </g>
                            </g>
                        </g>
                    </g>
                </g>
            </g>
        </g>
    </g>
</svg>